HIERARCHY
ROOT Hips
{
	OFFSET 0.000000 0.000000 0.000000
	CHANNELS 6 Xposition Yposition Zposition Xrotation Yrotation Zrotation
	JOINT LeftUpLeg_virtual
	{
		OFFSET 0.000000 0.000000 0.000000
		CHANNELS 3 Xrotation Yrotation Zrotation
		JOINT LeftUpLeg
		{
			OFFSET 11.394100 -6.187798 -0.413800
			CHANNELS 3 Xrotation Yrotation Zrotation
			JOINT LeftLeg
			{
				OFFSET 0.430247 -32.302673 3.732800
				CHANNELS 3 Xrotation Yrotation Zrotation
				JOINT LeftFoot
				{
					OFFSET -0.430247 -48.264931 -6.423300
					CHANNELS 3 Xrotation Yrotation Zrotation
					JOINT LeftToeBase
					{
						OFFSET 4.230900 -16.068199 23.438400
						CHANNELS 3 Xrotation Yrotation Zrotation
						JOINT LeftToe_End
						{
							OFFSET 4.510700 0.695400 19.974600
							CHANNELS 3 Xrotation Yrotation Zrotation
							End Site
							{
								OFFSET 0 0 0
							}
						}
					}
				}
			}
		}
	}
	JOINT RightUpLeg_virtual
	{
		OFFSET 0.000000 0.000000 0.000000
		CHANNELS 3 Xrotation Yrotation Zrotation
		JOINT RightUpLeg
		{
			OFFSET -11.333700 -6.187798 -0.413800
			CHANNELS 3 Xrotation Yrotation Zrotation
			JOINT RightLeg
			{
				OFFSET -0.430392 -32.302628 3.733000
				CHANNELS 3 Xrotation Yrotation Zrotation
				JOINT RightFoot
				{
					OFFSET 0.430392 -48.264973 -6.423500
					CHANNELS 3 Xrotation Yrotation Zrotation
					JOINT RightToeBase
					{
						OFFSET -4.230900 -16.068199 23.438400
						CHANNELS 3 Xrotation Yrotation Zrotation
						JOINT RightToe_End
						{
							OFFSET -4.510700 0.695400 19.974600
							CHANNELS 3 Xrotation Yrotation Zrotation
							End Site
							{
								OFFSET 0 0 0
							}
						}
					}
				}
			}
		}
	}
	JOINT Spine_virtual
	{
		OFFSET 0.000000 0.000000 0.000000
		CHANNELS 3 Xrotation Yrotation Zrotation
		JOINT Spine
		{
			OFFSET -0.002400 12.777504 0.315300
			CHANNELS 3 Xrotation Yrotation Zrotation
			JOINT Spine1
			{
				OFFSET -0.002067 5.816869 0.032633
				CHANNELS 3 Xrotation Yrotation Zrotation
				JOINT Spine1_split
				{
					OFFSET -0.002067 5.816869 0.032633
					CHANNELS 3 Xrotation Yrotation Zrotation
					JOINT Spine2
					{
						OFFSET -0.002067 5.816869 0.032633
						CHANNELS 3 Xrotation Yrotation Zrotation
						JOINT Neck_virtual
						{
							OFFSET 0.000000 0.000000 0.000000
							CHANNELS 3 Xrotation Yrotation Zrotation
							JOINT Neck
							{
								OFFSET -0.003700 21.199493 -0.826900
								CHANNELS 3 Xrotation Yrotation Zrotation
								JOINT Head
								{
									OFFSET 0.000000 20.442200 4.834800
									CHANNELS 3 Xrotation Yrotation Zrotation
									JOINT HeadTop_End
									{
										OFFSET 0.000000 34.668396 4.968400
										CHANNELS 3 Xrotation Yrotation Zrotation
										End Site
										{
											OFFSET 0 0 0
										}
									}
								}
							}
						}
						JOINT LeftShoulder_virtual
						{
							OFFSET 0.000000 0.000000 0.000000
							CHANNELS 3 Xrotation Yrotation Zrotation
							JOINT LeftShoulder
							{
								OFFSET 3.288150 8.794197 -1.372250
								CHANNELS 3 Xrotation Yrotation Zrotation
								JOINT LeftShoulder_split
								{
									OFFSET 3.288150 8.794197 -1.372250
									CHANNELS 3 Xrotation Yrotation Zrotation
									JOINT LeftArm
									{
										OFFSET 11.953299 -2.279007 -0.146200
										CHANNELS 3 Xrotation Yrotation Zrotation
										JOINT LeftForeArm
										{
											OFFSET 18.448900 0.000000 0.000000
											CHANNELS 3 Xrotation Yrotation Zrotation
											JOINT LeftHand
											{
												OFFSET 29.527798 0.000000 0.000000
												CHANNELS 3 Xrotation Yrotation Zrotation
												End Site
												{
													OFFSET 0 0 0
												}
											}
										}
									}
								}
							}
						}
						JOINT RightShoulder_virtual
						{
							OFFSET 0.000000 0.000000 0.000000
							CHANNELS 3 Xrotation Yrotation Zrotation
							JOINT RightShoulder
							{
								OFFSET -3.249400 8.794197 -1.372250
								CHANNELS 3 Xrotation Yrotation Zrotation
								JOINT RightShoulder_split
								{
									OFFSET -3.249400 8.794197 -1.372250
									CHANNELS 3 Xrotation Yrotation Zrotation
									JOINT RightArm
									{
										OFFSET -11.953299 -2.279007 -0.146200
										CHANNELS 3 Xrotation Yrotation Zrotation
										JOINT RightForeArm
										{
											OFFSET -18.448900 0.000000 0.000000
											CHANNELS 3 Xrotation Yrotation Zrotation
											JOINT RightHand
											{
												OFFSET -29.527802 0.000000 0.000000
												CHANNELS 3 Xrotation Yrotation Zrotation
												End Site
												{
													OFFSET 0 0 0
												}
											}
										}
									}
								}
							}
						}
					}
				}
			}
		}
	}
}
MOTION
Frames: 4
Frame Time: 0.03333333
-0.226815 82.900063 -5.194769 0.000000 0.000000 0.000000 8.344556 -0.317658 -2.021066 12.550582 5.994984 10.110227 32.635023 -3.803963 9.761796 -16.272968 -1.934182 -7.740669 -27.686694 -0.350984 -5.188171 0.000000 0.000000 0.000000 9.792401 2.777961 -2.644731 -74.701157 0.509164 -2.492391 66.871951 -8.109835 -0.065437 6.333391 2.334084 -9.673444 -1.837952 0.874996 -0.673098 0.000000 0.000000 0.000000 8.542015 -0.138755 -2.249009 1.229525 -3.895146 2.759616 1.781906 -2.652247 2.555473 0.789722 -1.780706 -0.059367 0.000000 0.000000 0.000000 2.827657 -2.597031 2.706414 -3.710893 1.287816 -1.417928 -17.078681 -5.583815 7.531419 0.000000 0.000000 0.000000 3.243746 -2.802247 1.903771 -1.259180 2.625334 -3.310162 -2.867029 2.936071 -2.405667 -14.430979 5.519302 -58.252798 -178.961038 -73.656623 -177.259474 0.000000 0.000000 0.000000 4.505961 -2.188935 2.673247 0.911138 -8.543114 16.513157 -3.111774 4.497178 1.584243 -23.033177 8.023016 53.836319 -171.189088 56.618406 171.513946 0.000000 0.000000 0.000000 
-1.049844 84.680351 -5.245564 0.000000 0.000000 0.000000 8.524940 0.201800 -1.890903 10.628849 4.949595 9.689842 34.228588 -2.788885 9.504786 -9.637102 -1.573364 -7.947252 -24.937570 0.530421 -7.078181 0.000000 0.000000 0.000000 9.488563 2.298207 -2.542627 -74.512692 -0.119095 -3.779461 66.313774 -7.762291 0.150632 7.216928 2.627033 -9.444720 -1.380039 0.983684 -0.439617 0.000000 0.000000 0.000000 8.678468 0.184961 -2.253019 1.225916 -3.732830 3.088000 1.848458 -2.617782 2.345945 0.416338 -0.730298 -0.723104 0.000000 0.000000 0.000000 2.824982 -2.516832 2.422168 -3.662556 1.419310 -1.769108 -16.298377 -5.494963 7.717269 0.000000 0.000000 0.000000 3.426176 -2.738172 1.768721 -1.156031 1.478883 -2.231064 -2.861278 1.651161 -1.331113 -18.776706 4.006111 -57.883777 -178.255807 -73.987027 -176.526622 0.000000 0.000000 0.000000 4.739695 -2.088380 2.424494 0.844519 -7.951768 15.983700 -4.431950 5.115930 0.506488 -27.170395 9.654990 53.575792 -172.567188 54.973580 172.573677 0.000000 0.000000 0.000000 
-1.488184 88.180962 -5.029520 0.000000 0.000000 0.000000 8.221760 1.487900 -2.139301 5.512915 4.986401 9.524383 37.022409 -0.881977 8.285387 1.663453 -1.065475 -5.951147 -15.360592 0.657315 -8.814120 0.000000 0.000000 0.000000 8.936180 1.885755 -2.690410 -71.811093 -0.181252 -4.449360 60.910924 -6.831880 -0.220828 9.974959 2.930383 -8.734768 -2.060194 0.943998 -0.057156 0.000000 0.000000 0.000000 8.535839 0.750775 -2.121623 1.900106 -3.006272 3.616104 1.925033 -2.400619 1.796512 0.330309 0.361230 -0.895519 0.000000 0.000000 0.000000 2.747279 -2.249982 1.750119 -3.331565 1.500776 -2.171447 -14.712651 -5.704171 8.065868 0.000000 0.000000 0.000000 3.591372 -2.438952 1.382793 -0.974263 -0.536459 -1.042281 -2.270435 1.072452 -0.826128 -25.812104 0.352005 -56.835438 -176.543082 -76.133441 -174.940474 0.000000 0.000000 0.000000 4.875557 -1.856267 1.844792 0.887191 -7.279258 14.658414 -4.637024 4.163474 0.175115 -35.089144 12.862338 53.364487 -172.925404 56.060280 172.832514 0.000000 0.000000 0.000000 
-1.311542 92.565178 -4.532431 0.000000 0.000000 0.000000 7.564082 2.779808 -2.673161 -1.740171 5.527887 9.475788 41.300440 1.398737 6.725164 13.906212 0.024753 -2.829501 -3.067547 0.052081 -10.040986 0.000000 0.000000 0.000000 8.099594 1.993425 -3.073798 -66.273585 0.148058 -4.303084 51.909940 -5.709745 -0.667023 14.138072 3.099796 -7.879260 -4.970313 0.715823 0.353793 0.000000 0.000000 0.000000 7.971848 1.502211 -1.863362 3.093532 -1.955229 4.102567 2.112501 -2.060667 1.147324 0.221668 1.233949 -0.439090 0.000000 0.000000 0.000000 2.740835 -1.832858 1.024186 -2.789794 1.584168 -2.599821 -12.791111 -6.084340 8.521697 0.000000 0.000000 0.000000 3.764924 -1.981539 0.980768 -0.721496 -3.091513 0.189664 -1.771806 1.410856 -0.880895 -34.495041 -4.696083 -56.138605 -173.246792 -80.240666 -171.929071 0.000000 0.000000 0.000000 4.953761 -1.542213 1.179571 0.940042 -6.743360 12.520835 -4.007184 2.293016 0.099195 -45.082452 16.568780 53.920949 -172.443357 59.839998 172.535783 0.000000 0.000000 0.000000 
